<svg xmlns="http://www.w3.org/2000/svg" xmlns:xlink="http://www.w3.org/1999/xlink" width="2000" zoomAndPan="magnify" viewBox="0 0 1500 1499.999933" height="2000" preserveAspectRatio="xMidYMid meet" version="1.0"><defs><clipPath id="729dac7973"><path d="M 40.308594 246.761719 L 732 246.761719 L 732 1253.261719 L 40.308594 1253.261719 Z M 40.308594 246.761719 " clip-rule="nonzero"/></clipPath><clipPath id="fe224e83de"><path d="M 731 557 L 1460.058594 557 L 1460.058594 1253.261719 L 731 1253.261719 Z M 731 557 " clip-rule="nonzero"/></clipPath></defs><rect x="-150" width="1800" fill="#ffffff" y="-149.999993" height="1799.99992" fill-opacity="1"/><rect x="-150" width="1800" fill="#ffffff" y="-149.999993" height="1799.99992" fill-opacity="1"/><g clip-path="url(#729dac7973)"><path fill="#000000" d="M 696.089844 827.296875 C 643.375 723.464844 532.046875 454.449219 673.273438 246.785156 C 668.160156 253.46875 465.5625 520.128906 461.238281 766.335938 C 495.066406 808.417969 528.507812 842.242188 552.898438 865.054688 C 578.46875 889.046875 598.53125 918.148438 611.511719 950.792969 L 731.496094 1252.847656 C 731.101562 1252.457031 720.480469 1245.769531 444.714844 1066.816406 C 377.835938 1023.554688 336.136719 959.839844 311.355469 888.257812 C 195.304688 817.859375 58.402344 698.292969 40.308594 519.734375 C 40.308594 519.734375 65.089844 1099.460938 398.292969 1176.15625 C 731.496094 1253.242188 731.496094 1253.242188 731.496094 1253.242188 L 722.054688 927.980469 C 720.875 892.585938 711.828125 858.367188 696.089844 827.296875 Z M 696.089844 827.296875 " fill-opacity="1" fill-rule="nonzero"/></g><path fill="#000000" d="M 514.738281 1009.789062 L 731.101562 1252.457031 C 729.53125 1250.488281 712.613281 1227.679688 525.359375 979.503906 C 477.367188 915.789062 459.664062 841.847656 461.238281 765.941406 C 376.65625 660.144531 288.929688 501.25 332.597656 327.410156 C 327.875 342.75 231.890625 657.785156 311.355469 887.472656 C 357.773438 915.398438 400.652344 935.847656 430.945312 948.828125 C 462.808594 962.984375 491.527344 983.832031 514.738281 1009.789062 Z M 514.738281 1009.789062 " fill-opacity="1" fill-rule="nonzero"/><path fill="#000000" d="M 929.765625 874.886719 C 955.335938 853.648438 990.347656 821.789062 1026.539062 781.28125 C 1035.195312 537.039062 849.515625 262.515625 842.039062 251.503906 C 971.859375 466.246094 846.761719 728.972656 788.539062 829.65625 C 771.230469 859.941406 760.609375 893.765625 757.855469 928.769531 L 731.496094 1252.847656 L 867.214844 957.480469 C 881.773438 925.621094 903.015625 897.304688 929.765625 874.886719 Z M 929.765625 874.886719 " fill-opacity="1" fill-rule="nonzero"/><path fill="#000000" d="M 731.890625 1252.0625 L 960.058594 1021.589844 C 984.839844 996.808594 1014.34375 977.539062 1047.390625 965.738281 C 1078.46875 954.332031 1122.527344 936.242188 1170.128906 910.675781 C 1262.183594 682.957031 1180.355469 359.269531 1177.996094 349.828125 C 1212.613281 525.636719 1116.625 680.203125 1026.539062 781.28125 C 1023.785156 857.1875 1002.542969 929.949219 951.007812 990.910156 C 760.605469 1217.84375 735.035156 1248.128906 731.890625 1252.0625 Z M 731.890625 1252.0625 " fill-opacity="1" fill-rule="nonzero"/><g clip-path="url(#fe224e83de)"><path fill="#000000" d="M 1170.128906 910.675781 C 1141.804688 981.078125 1096.5625 1042.039062 1027.71875 1082.15625 C 731.496094 1253.242188 731.496094 1253.242188 731.496094 1253.242188 C 731.496094 1253.242188 731.496094 1253.242188 1068.238281 1193.855469 C 1404.984375 1134.464844 1460.058594 557.097656 1460.058594 557.097656 C 1432.519531 734.085938 1289.324219 846.175781 1170.128906 910.675781 Z M 1170.128906 910.675781 " fill-opacity="1" fill-rule="nonzero"/></g></svg>
