<svg xmlns="http://www.w3.org/2000/svg" width="64" viewBox="0 0 1500 1499.999933" height="64"><rect width="64" height="64" fill="#111110"/><defs><clipPath id="e04d7de037"><path d="M 329 44.007812 L 830 44.007812 L 830 955 L 329 955 Z M 329 44.007812 " clip-rule="nonzero"/></clipPath><clipPath id="2171931406"><path d="M 715 497.160156 L 916.441406 497.160156 L 916.441406 917 L 715 917 Z M 715 497.160156 " clip-rule="nonzero"/></clipPath><clipPath id="3a6eb0a253"><path d="M 583.441406 583 L 767 583 L 767 1002.660156 L 583.441406 1002.660156 Z M 583.441406 583 " clip-rule="nonzero"/></clipPath></defs><path fill="#861442" d="M 312.179688 405.347656 L 178.503906 328.164062 C 40.441406 567.289062 137.507812 881.789062 376.632812 1019.863281 C 514.527344 1099.476562 674.578125 1105.910156 811.855469 1051.265625 C 704.515625 1066.90625 591.351562 1047.890625 490.117188 989.457031 C 275.503906 865.546875 228.164062 630.003906 312.179688 405.347656 " fill-opacity="1" fill-rule="nonzero"/><path fill="#be3650" d="M 232.605469 956.839844 L 98.933594 1034.003906 C 236.992188 1273.128906 557.890625 1346.328125 797.027344 1208.269531 C 934.917969 1128.65625 1020.523438 993.277344 1041.832031 847.058594 C 1001.699219 947.835938 928.660156 1036.34375 827.433594 1094.78125 C 612.8125 1218.691406 385.167969 1141.917969 232.605469 956.839844 " fill-opacity="1" fill-rule="nonzero"/><path fill="#861442" d="M 670.421875 1301.480469 L 670.421875 1455.835938 C 946.546875 1455.835938 1170.378906 1214.535156 1170.378906 938.410156 C 1170.378906 779.175781 1095.941406 637.347656 979.960938 545.785156 C 1047.191406 630.925781 1087.304688 738.433594 1087.304688 855.335938 C 1087.304688 1103.140625 906.996094 1261.917969 670.421875 1301.480469 " fill-opacity="1" fill-rule="nonzero"/><path fill="#be3650" d="M 1187.804688 1094.648438 L 1321.488281 1171.832031 C 1459.546875 932.707031 1362.488281 618.183594 1123.363281 480.132812 C 985.453125 400.519531 825.410156 394.066406 688.128906 448.726562 C 795.464844 433.085938 908.640625 452.105469 1009.875 510.535156 C 1224.484375 634.449219 1271.820312 869.988281 1187.804688 1094.648438 " fill-opacity="1" fill-rule="nonzero"/><path fill="#861442" d="M 1267.375 543.15625 L 1401.0625 465.992188 C 1262.996094 226.855469 942.105469 153.667969 702.96875 291.726562 C 565.078125 371.339844 479.464844 506.734375 458.164062 652.9375 C 498.285156 552.15625 571.328125 463.652344 672.5625 405.203125 C 887.167969 281.304688 1114.828125 358.074219 1267.375 543.15625 " fill-opacity="1" fill-rule="nonzero"/><g clip-path="url(#e04d7de037)"><path fill="#be3650" d="M 829.566406 198.515625 L 829.566406 44.15625 C 553.449219 44.15625 329.605469 285.460938 329.605469 561.582031 C 329.605469 720.820312 404.050781 862.648438 520.023438 954.207031 C 452.804688 869.066406 412.683594 761.5625 412.683594 644.65625 C 412.683594 396.855469 592.992188 238.078125 829.566406 198.515625 " fill-opacity="1" fill-rule="nonzero"/></g><g clip-path="url(#2171931406)"><path fill="#be3650" d="M 814.671875 596.429688 L 823.242188 497.148438 L 760.707031 709.34375 L 846.28125 709.34375 L 715.503906 912.953125 C 726.632812 915.300781 738.171875 916.542969 750 916.542969 C 841.996094 916.542969 916.566406 841.96875 916.566406 749.972656 C 916.566406 680.917969 874.539062 621.675781 814.671875 596.429688 " fill-opacity="1" fill-rule="nonzero"/></g><g clip-path="url(#3a6eb0a253)"><path fill="#861442" d="M 657.792969 1002.800781 L 737.238281 758 L 653.714844 758 L 766.648438 584.230469 C 761.171875 583.6875 755.617188 583.40625 750 583.40625 C 658.007812 583.40625 583.429688 657.980469 583.429688 749.972656 C 583.429688 813.066406 618.515625 867.964844 670.238281 896.234375 L 657.792969 1002.804688 L 657.792969 1002.800781 " fill-opacity="1" fill-rule="nonzero"/></g></svg>